<svg xmlns="http://www.w3.org/2000/svg" version="1.1" xmlns:xlink="http://www.w3.org/1999/xlink" width="1500" height="144" viewBox="0 0 1500 144"><svg xml:space="preserve" width="1500" height="144" data-version="2" data-id="lg_KG96CQZWhtdh6wpxB8" viewBox="0 0 564 144" x="0" y="0"><rect width="100%" height="100%" fill="transparent"></rect><circle r="59.32" fill="#b6ecec" transform="translate(76.17 72)scale(1.1909)"></circle><path fill="#258484" d="M207.18 109.64h-39.11q-.47 0-.47-.59l.12-83.12q0-.48.47-.48h38.87q.48 0 .48.59v13.53q0 .48-.48.48h-24.81v18.9h24.81q.48 0 .48.47l.12 13.71q0 .47-.48.47h-24.93v21.16h24.93q.48 0 .48.59v13.82q0 .47-.48.47m33.38 0h-21.68q-.47 0-.47-.59l.23-83.12q0-.48.48-.48h23.28q6.79 0 12.34 3.31 5.44 3.31 8.57 8.78 3.13 5.46 3.13 11.84 0 5.2-2.36 9.69-2.36 4.49-5.61 7.27 3.48 3.48 5.43 8.09 1.95 4.61 1.95 9.69 0 7.03-3.37 12.82-3.42 5.79-9.15 9.25-5.74 3.45-12.77 3.45m1.84-69.83h-9.22v19.02h9.22q4.19 0 6.79-2.98 2.6-2.98 2.6-6.47 0-3.84-2.78-6.7-2.77-2.87-6.61-2.87m-1.84 33.68h-7.38l-.12 21.38h7.5q4.38 0 7.51-3.19t3.13-7.56q0-4.37-3.13-7.5t-7.51-3.13m48.27 36.15h-13.7q-.59 0-.59-.59l.11-83.12q0-.48.48-.48h13.59q.47 0 .47.48l.12 83.12q0 .59-.48.59m33.39-.11-21.69.11q-.59 0-.59-.59l.24-83.12q0-.48.47-.48l22.63-.12q6.73-.17 12.17 3.08 5.49 3.25 8.77 8.77 3.28 5.52 3.28 12.2v34.74q0 6.97-3.37 12.76-3.42 5.73-9.09 9.13-5.68 3.4-12.82 3.52m1.06-69.72-8.45.12-.12 54.83h7.51q4.49 0 7.56-3.14 3.07-3.13 3.07-7.5V49.26q0-3.84-2.84-6.7-2.83-2.87-6.73-2.75m75.62 69.83h-45.13q-.6 0-.6-.59l.12-13.17 29.66-56.66h-28.06q-.53 0-.53-.47V26.04q0-.59.53-.59h43.78q.59 0 .59.59V39.1l-29.48 56.37h29.12q.48 0 .48.64l.11 12.94q0 .59-.59.59m30.55 1.19q-6.44 0-11.88-3.31-5.37-3.31-8.65-8.83-3.28-5.53-3.28-12.15l.12-38.34q0-6.74 3.25-12.11 3.19-5.44 8.62-8.72 5.44-3.28 11.82-3.28 6.62 0 11.87 3.25 5.32 3.25 8.54 8.72 3.22 5.46 3.22 12.14l.12 38.34q0 6.62-3.19 12.12-3.25 5.55-8.63 8.86-5.37 3.31-11.93 3.31m0-14.6q3.66 0 6.38-2.98 2.72-2.98 2.72-6.71l-.12-38.34q0-4.02-2.54-6.8-2.54-2.77-6.44-2.77-3.72 0-6.38 2.72-2.66 2.71-2.66 6.85v38.34q0 3.96 2.66 6.83 2.66 2.86 6.38 2.86m46.02 13.41h-12.11q-.94 0-.94-.82l-.12-82.42q0-.95.94-.95h10.93l20.45 47.68-.59-46.73q0-.95 1.06-.95h11.99q.71 0 .71.95l.12 82.54q0 .7-.59.7h-10.64L475.71 65.1l.89 43.6q0 .94-1.13.94m82.54 0H518.9q-.47 0-.47-.59l.12-83.12q0-.48.47-.48h38.87q.48 0 .48.59v13.53q0 .48-.48.48h-24.81v18.9h24.81q.48 0 .48.47l.11 13.71q0 .47-.47.47h-24.93v21.16h24.93q.47 0 .47.59v13.82q0 .47-.47.47"></path><path fill="#39cccc" d="M90.36 102.35H64.83q-.31 0-.31-.39l.07-54.27q0-.31.31-.31h25.38q.31 0 .31.39v8.83q0 .31-.31.31h-16.2v12.34h16.2q.31 0 .31.31l.08 8.95q0 .31-.31.31H74.08v13.81h16.28q.31 0 .31.38v9.03q0 .31-.31.31" paint-order="stroke"></path></svg></svg>